<svg width="42" height="84" viewBox="0 0 42 84" fill="none" xmlns="http://www.w3.org/2000/svg">
<g id="Vector">
<g id="Vector 2">
<path d="M2 16.6214C10.1752 0.966755 27.9316 0.444913 30.1664 3.42657C34.2093 8.82044 31.7438 18.3398 24.9601 24.7756C22.9877 27.657 12.6658 31.9693 18.0025 24.1996C24.7526 16.8825 38.2872 9.42919 39.63 24.1996C41.457 44.2967 36.7881 62.5207 19.568 80.6105" stroke="black" stroke-width="3" stroke-linecap="round"/>
<path d="M2 16.6214C10.1752 0.966755 27.9316 0.444913 30.1664 3.42657C34.2093 8.82044 31.7438 18.3398 24.9601 24.7756C22.9877 27.657 12.6658 31.9693 18.0025 24.1996C24.7526 16.8825 38.2872 9.42919 39.63 24.1996C41.457 44.2967 36.7881 62.5207 19.568 80.6105" stroke="url(#paint0_linear_510_3380)" stroke-width="3" stroke-linecap="round"/>
</g>
<g id="Vector 3">
<path d="M18.3163 66.6001C17.96 71.6614 17.96 79.2247 17.96 81.7854C17.96 83.3286 29.88 80.156 32.0366 78.5385" stroke="black" stroke-width="3" stroke-linecap="round"/>
<path d="M18.3163 66.6001C17.96 71.6614 17.96 79.2247 17.96 81.7854C17.96 83.3286 29.88 80.156 32.0366 78.5385" stroke="url(#paint1_linear_510_3380)" stroke-width="3" stroke-linecap="round"/>
</g>
</g>
<defs>
<linearGradient id="paint0_linear_510_3380" x1="21" y1="2" x2="21" y2="80.6105" gradientUnits="userSpaceOnUse">
<stop stop-color="#FFD294"/>
<stop offset="1" stop-color="#FF96BC"/>
</linearGradient>
<linearGradient id="paint1_linear_510_3380" x1="25.2659" y1="74.2354" x2="14.9701" y2="86.1399" gradientUnits="userSpaceOnUse">
<stop stop-color="#FF96BC"/>
<stop offset="1" stop-color="#FF689E"/>
</linearGradient>
</defs>
</svg>
